<mxfile host="65bd71144e">
    <diagram id="tr8WCDj-hul7nBdrf4UF" name="Страница 1">
        <mxGraphModel dx="1515" dy="648" grid="1" gridSize="10" guides="1" tooltips="1" connect="0" arrows="1" fold="1" page="1" pageScale="1" pageWidth="827" pageHeight="1169" math="0" shadow="0">
            <root>
                <mxCell id="0"/>
                <mxCell id="1" parent="0"/>
                <mxCell id="2" style="edgeStyle=orthogonalEdgeStyle;rounded=0;orthogonalLoop=1;jettySize=auto;html=1;" parent="1" source="3" target="4" edge="1">
                    <mxGeometry relative="1" as="geometry"/>
                </mxCell>
                <mxCell id="3" value="Запуск" style="rounded=1;whiteSpace=wrap;html=1;arcSize=50;" parent="1" vertex="1">
                    <mxGeometry x="305" y="20" width="140" height="40" as="geometry"/>
                </mxCell>
                <mxCell id="195" style="edgeStyle=none;html=1;" parent="1" source="4" edge="1">
                    <mxGeometry relative="1" as="geometry">
                        <mxPoint x="375" y="200" as="targetPoint"/>
                    </mxGeometry>
                </mxCell>
                <mxCell id="4" value="float n, z, a;" style="rounded=0;whiteSpace=wrap;html=1;" parent="1" vertex="1">
                    <mxGeometry x="315" y="120" width="120" height="50" as="geometry"/>
                </mxCell>
                <mxCell id="5" value="#include &amp;lt;iostream&amp;gt;&lt;br&gt;using namespace std;&lt;br&gt;int main() {&lt;br&gt;setlocale(LC_ALL, &quot;Russian&quot;);" style="strokeWidth=2;html=1;shape=mxgraph.flowchart.annotation_2;align=left;labelPosition=right;pointerEvents=1;" parent="1" vertex="1">
                    <mxGeometry x="455" y="50" width="20" height="60" as="geometry"/>
                </mxCell>
                <mxCell id="6" value="" style="endArrow=none;dashed=1;html=1;entryX=0;entryY=0.5;entryDx=0;entryDy=0;entryPerimeter=0;" parent="1" target="5" edge="1">
                    <mxGeometry width="50" height="50" relative="1" as="geometry">
                        <mxPoint x="375" y="80" as="sourcePoint"/>
                        <mxPoint x="465" y="70" as="targetPoint"/>
                    </mxGeometry>
                </mxCell>
                <mxCell id="7" value="Конец" style="rounded=1;whiteSpace=wrap;html=1;arcSize=50;" parent="1" vertex="1">
                    <mxGeometry x="300" y="1139" width="140" height="40" as="geometry"/>
                </mxCell>
                <mxCell id="10" value="return 0;&lt;br&gt;}" style="strokeWidth=2;html=1;shape=mxgraph.flowchart.annotation_2;align=left;labelPosition=right;pointerEvents=1;" parent="1" vertex="1">
                    <mxGeometry x="470" y="1100" width="20" height="60" as="geometry"/>
                </mxCell>
                <mxCell id="11" value="" style="endArrow=none;dashed=1;html=1;entryX=0;entryY=0.5;entryDx=0;entryDy=0;entryPerimeter=0;" parent="1" edge="1">
                    <mxGeometry width="50" height="50" relative="1" as="geometry">
                        <mxPoint x="370" y="1130" as="sourcePoint"/>
                        <mxPoint x="470" y="1130" as="targetPoint"/>
                    </mxGeometry>
                </mxCell>
                <mxCell id="236" style="edgeStyle=none;html=1;" parent="1" source="234" edge="1">
                    <mxGeometry relative="1" as="geometry">
                        <mxPoint x="375" y="280" as="targetPoint"/>
                    </mxGeometry>
                </mxCell>
                <mxCell id="234" value="int i = 1;" style="rounded=0;whiteSpace=wrap;html=1;" parent="1" vertex="1">
                    <mxGeometry x="315" y="200" width="120" height="50" as="geometry"/>
                </mxCell>
                <mxCell id="248" value="" style="edgeStyle=none;html=1;" parent="1" target="247" edge="1">
                    <mxGeometry relative="1" as="geometry">
                        <mxPoint x="375" y="320" as="sourcePoint"/>
                    </mxGeometry>
                </mxCell>
                <mxCell id="254" value="" style="edgeStyle=none;html=1;rounded=0;" parent="1" source="247" target="253" edge="1">
                    <mxGeometry relative="1" as="geometry"/>
                </mxCell>
                <mxCell id="247" value="cin &amp;gt;&amp;gt; n &amp;gt;&amp;gt; z;" style="shape=parallelogram;perimeter=parallelogramPerimeter;whiteSpace=wrap;html=1;fixedSize=1;" parent="1" vertex="1">
                    <mxGeometry x="252.5" y="360" width="245" height="40" as="geometry"/>
                </mxCell>
                <mxCell id="252" value="bool flag = false;" style="rounded=0;whiteSpace=wrap;html=1;" parent="1" vertex="1">
                    <mxGeometry x="315" y="280" width="120" height="50" as="geometry"/>
                </mxCell>
                <mxCell id="256" value="1" style="edgeStyle=orthogonalEdgeStyle;rounded=0;html=1;" parent="1" source="253" target="270" edge="1">
                    <mxGeometry relative="1" as="geometry">
                        <mxPoint x="375" y="510" as="targetPoint"/>
                    </mxGeometry>
                </mxCell>
                <mxCell id="281" value="0" style="edgeStyle=orthogonalEdgeStyle;rounded=0;html=1;" edge="1" parent="1" source="253" target="280">
                    <mxGeometry x="-0.9071" relative="1" as="geometry">
                        <Array as="points">
                            <mxPoint x="610" y="455"/>
                            <mxPoint x="610" y="850"/>
                            <mxPoint x="375" y="850"/>
                        </Array>
                        <mxPoint as="offset"/>
                    </mxGeometry>
                </mxCell>
                <mxCell id="253" value="while (i &amp;lt;= n &amp;amp;&amp;amp; !flag)" style="shape=hexagon;perimeter=hexagonPerimeter2;whiteSpace=wrap;html=1;fixedSize=1;" parent="1" vertex="1">
                    <mxGeometry x="287.5" y="430" width="175" height="50" as="geometry"/>
                </mxCell>
                <mxCell id="275" value="1" style="edgeStyle=orthogonalEdgeStyle;rounded=0;html=1;" edge="1" parent="1" source="269" target="272">
                    <mxGeometry relative="1" as="geometry"/>
                </mxCell>
                <mxCell id="276" value="0" style="edgeStyle=orthogonalEdgeStyle;rounded=0;html=1;" edge="1" parent="1" source="269" target="273">
                    <mxGeometry relative="1" as="geometry"/>
                </mxCell>
                <mxCell id="269" value="if (a == z)" style="rhombus;whiteSpace=wrap;html=1;" vertex="1" parent="1">
                    <mxGeometry x="305" y="610" width="140" height="60" as="geometry"/>
                </mxCell>
                <mxCell id="271" style="edgeStyle=none;html=1;rounded=0;" edge="1" parent="1" source="270" target="269">
                    <mxGeometry relative="1" as="geometry"/>
                </mxCell>
                <mxCell id="270" value="a = sin(n + i / n);" style="rounded=0;whiteSpace=wrap;html=1;" vertex="1" parent="1">
                    <mxGeometry x="315" y="530" width="120" height="50" as="geometry"/>
                </mxCell>
                <mxCell id="277" style="edgeStyle=orthogonalEdgeStyle;rounded=0;html=1;" edge="1" parent="1" source="272">
                    <mxGeometry relative="1" as="geometry">
                        <mxPoint x="380" y="780" as="targetPoint"/>
                        <Array as="points">
                            <mxPoint x="240" y="780"/>
                        </Array>
                    </mxGeometry>
                </mxCell>
                <mxCell id="272" value="flag = true;" style="rounded=0;whiteSpace=wrap;html=1;" vertex="1" parent="1">
                    <mxGeometry x="180" y="680" width="120" height="50" as="geometry"/>
                </mxCell>
                <mxCell id="278" style="edgeStyle=orthogonalEdgeStyle;rounded=0;html=1;" edge="1" parent="1" source="273">
                    <mxGeometry relative="1" as="geometry">
                        <mxPoint x="380" y="780" as="targetPoint"/>
                        <Array as="points">
                            <mxPoint x="523" y="780"/>
                        </Array>
                    </mxGeometry>
                </mxCell>
                <mxCell id="273" value="i++;" style="rounded=0;whiteSpace=wrap;html=1;" vertex="1" parent="1">
                    <mxGeometry x="462.5" y="680" width="120" height="50" as="geometry"/>
                </mxCell>
                <mxCell id="279" value="" style="endArrow=classic;html=1;rounded=0;entryX=0.014;entryY=0.48;entryDx=0;entryDy=0;entryPerimeter=0;" edge="1" parent="1" target="253">
                    <mxGeometry width="50" height="50" relative="1" as="geometry">
                        <mxPoint x="380" y="780" as="sourcePoint"/>
                        <mxPoint x="410" y="630" as="targetPoint"/>
                        <Array as="points">
                            <mxPoint x="380" y="830"/>
                            <mxPoint x="160" y="830"/>
                            <mxPoint x="160" y="454"/>
                        </Array>
                    </mxGeometry>
                </mxCell>
                <mxCell id="285" value="1" style="edgeStyle=orthogonalEdgeStyle;rounded=0;html=1;" edge="1" parent="1" source="280" target="282">
                    <mxGeometry x="-0.6889" relative="1" as="geometry">
                        <Array as="points">
                            <mxPoint x="130" y="900"/>
                        </Array>
                        <mxPoint as="offset"/>
                    </mxGeometry>
                </mxCell>
                <mxCell id="287" value="0" style="edgeStyle=orthogonalEdgeStyle;rounded=0;html=1;" edge="1" parent="1" source="280" target="286">
                    <mxGeometry x="-0.6636" relative="1" as="geometry">
                        <mxPoint as="offset"/>
                    </mxGeometry>
                </mxCell>
                <mxCell id="280" value="if (flag)" style="rhombus;whiteSpace=wrap;html=1;" vertex="1" parent="1">
                    <mxGeometry x="305" y="870" width="140" height="60" as="geometry"/>
                </mxCell>
                <mxCell id="288" style="edgeStyle=orthogonalEdgeStyle;rounded=0;html=1;" edge="1" parent="1" source="282">
                    <mxGeometry relative="1" as="geometry">
                        <mxPoint x="370" y="1030" as="targetPoint"/>
                        <Array as="points">
                            <mxPoint x="130" y="1030"/>
                        </Array>
                    </mxGeometry>
                </mxCell>
                <mxCell id="282" value="cout &amp;lt;&amp;lt; &quot;Элемент &quot; &amp;lt;&amp;lt; z &amp;lt;&amp;lt; &quot; найден. Его номер: &quot; &amp;lt;&amp;lt; i &amp;lt;&amp;lt; endl;" style="shape=parallelogram;perimeter=parallelogramPerimeter;whiteSpace=wrap;html=1;fixedSize=1;" vertex="1" parent="1">
                    <mxGeometry x="-70" y="950" width="400" height="40" as="geometry"/>
                </mxCell>
                <mxCell id="289" style="edgeStyle=orthogonalEdgeStyle;rounded=0;html=1;" edge="1" parent="1" source="286">
                    <mxGeometry relative="1" as="geometry">
                        <mxPoint x="370" y="1030" as="targetPoint"/>
                        <Array as="points">
                            <mxPoint x="663" y="1030"/>
                        </Array>
                    </mxGeometry>
                </mxCell>
                <mxCell id="286" value="&amp;nbsp;cout &amp;lt;&amp;lt; &quot;Элемент не найден&quot; &amp;lt;&amp;lt; endl;" style="shape=parallelogram;perimeter=parallelogramPerimeter;whiteSpace=wrap;html=1;fixedSize=1;" vertex="1" parent="1">
                    <mxGeometry x="462.5" y="950" width="400" height="40" as="geometry"/>
                </mxCell>
                <mxCell id="290" value="" style="endArrow=classic;html=1;rounded=0;" edge="1" parent="1">
                    <mxGeometry width="50" height="50" relative="1" as="geometry">
                        <mxPoint x="370" y="1030" as="sourcePoint"/>
                        <mxPoint x="370" y="1140" as="targetPoint"/>
                    </mxGeometry>
                </mxCell>
            </root>
        </mxGraphModel>
    </diagram>
</mxfile>